{"title":"Zoolander.2.2016.720p.HDTS.X264.AC3.HQ.Hive-CM8","uid":13562136,"size":3609240519,"categoryP":"video","categoryS":"movies","magnet":"?xt=urn:btih:2097e688f7fbefb0ff9d9b0804021c2fc5c83e2a&amp;dn=Zoolander.2.2016.720p.HDTS.X264.AC3.HQ.Hive-CM8&amp;tr=udp%3A%2F%2Ftracker.leechers-paradise.org%3A6969&amp;tr=udp%3A%2F%2Fzer0day.ch%3A1337&amp;tr=udp%3A%2F%2Fopen.demonii.com%3A1337&amp;tr=udp%3A%2F%2Ftracker.coppersurfer.tk%3A6969&amp;tr=udp%3A%2F%2Fexodus.desync.com%3A6969","seeders":5,"leechers":4,"uploader":"Supernova","files":4,"time":1455598102,"description":"http://boltpic.com/image/W\r\n\r\nZoolander.2.2016.720p.HDTS.X264.AC3.HQ.Hive-CM8\r\n\r\nThx Hive\r\n\r\nCM8 Doing It Right The First Time\r\n\r\nSources:\r\n\r\nVideo: 1080p Incoming big thx\r\nAudio: Sweet Direct Line Big Thx to S4NDM4N and we didnt have to pay 200 dollars for it lol\r\n\r\nNotes:\r\n\r\nThis is a perfect release, best possible Video and best possible Line combined\r\nthx for everyone involved\r\n\r\nEncode:\r\n\r\nVideo was already awesome, fixed perspective and slightly removed some noise and flicker in the video\r\nfull video nothing is missing\r\n\r\nAudio was already direct, as perfect as it can be, lipsycned to my video\r\nwont get better than this till retail\r\nenjoy\r\n\r\nVideo: 1280x720 @bitrate 4500-8000\r\nAudio: English Direct Line AC3 2.0 Stereo\r\nSample: yes included \nhttp://www.imdb.com/title/tt1608290/\r\n\r\nGeneral\r\nComplete name: Zoolander.2.2016.720p.HDTS.X264.AC3.HQ.Hive-CM8.mkv\r\nFormat: Matroska\r\nFormat version: Version 2\r\nFile size: 3.31 GiB\r\nDuration: 1h 35mn\r\nOverall bit rate mode: Variable\r\nOverall bit rate: 4 947 Kbps\r\nEncoded date: UTC 2016-02-15 21:33:46\r\nWriting application: mkvmerge v5.6.0 ('Kenya Kane') built on May 27 2012 16:44:04\r\nWriting library: libebml v1.2.3 + libmatroska v1.3.0\r\n\r\nVideo\r\nID: 1\r\nFormat: AVC\r\nFormat/Info: Advanced Video Codec\r\nFormat profile:   \r\nFormat settings, CABAC: Yes\r\nFormat settings, ReFrames: 3 frames\r\nFormat settings, GOP: M=4, N=33\r\nMuxing mode: Header stripping\r\nCodec ID: V_MPEG4/ISO/AVC\r\nDuration: 1h 35mn\r\nBit rate mode: Variable\r\nBit rate: 4 593 Kbps\r\nMaximum bit rate: 8 000 Kbps\r\nWidth: 1 280 pixels\r\nHeight: 720 pixels\r\nDisplay aspect ratio: 16:9\r\nFrame rate mode: Constant\r\nFrame rate: 29.970 fps\r\nStandard: NTSC\r\nColor space: YUV\r\nChroma subsampling: 4:2:0\r\nBit depth: 8 bits\r\nScan type: Progressive\r\nBits/(Pixel*Frame): 0.166\r\nStream size: 3.07 GiB (93%)\r\nLanguage: English\r\nDefault: Yes\r\nForced: No\r\nColor primaries: BT.709\r\nTransfer characteristics: BT.709\r\nMatrix coefficients: BT.709\r\nColor range: Limited\r\n\r\nAudio\r\nID: 2\r\nFormat: AC-3\r\nFormat/Info: Audio Coding 3\r\nMode extension: CM (complete main)\r\nFormat settings, Endianness: Big\r\nMuxing mode: Header stripping\r\nCodec ID: A_AC3\r\nDuration: 1h 35mn\r\nBit rate mode: Constant\r\nBit rate: 256 Kbps\r\nChannel(s): 2 channels\r\nChannel positions: Front: L R\r\nSampling rate: 48.0 KHz\r\nBit depth: 16 bits\r\nCompression mode: Lossy\r\nStream size: 175 MiB (5%)\r\nLanguage: English\r\nDefault: Yes\r\nForced: No\r\n\r\n\r\nScreens\r\n \nhttp://boltpic.com/image/a \nhttp://boltpic.com/image/x \nhttp://boltpic.com/image/9 \nhttp://boltpic.com/image/R \nhttp://boltpic.com/image/T \nhttp://boltpic.com/image/c \nhttp://boltpic.com/image/8","torrent":{"xt":"urn:btih:2097e688f7fbefb0ff9d9b0804021c2fc5c83e2a","amp;dn":"Zoolander.2.2016.720p.HDTS.X264.AC3.HQ.Hive-CM8","amp;tr":["udp%3A%2F%2Ftracker.leechers-paradise.org%3A6969","udp%3A%2F%2Fzer0day.ch%3A1337","udp%3A%2F%2Fopen.demonii.com%3A1337","udp%3A%2F%2Ftracker.coppersurfer.tk%3A6969","udp%3A%2F%2Fexodus.desync.com%3A6969"],"infoHash":"2097e688f7fbefb0ff9d9b0804021c2fc5c83e2a","infoHashBuffer":{"type":"Buffer","data":[32,151,230,136,247,251,239,176,255,157,155,8,4,2,28,47,197,200,62,42]},"announce":[],"urlList":[]}}